# xmcd
#
# Track frame offsets: 
#        151
#        19227
#        33919
#        52317
#        68702
#        83593
#        98984
#        112485
#        128588
#        143910
#
# Disc length: 2164 seconds
#
# Revision: 0
# Processed by: cddbd v1.5.2PL0 Copyright (c) Steve Scherf et al.
# Submitted via: ExactAudioCopy v1.0b1
#
DISCID=8c08720a
DTITLE=Positive Change - Positive Change
DYEAR=1978
DGENRE=Soul
TTITLE0=You Make It So Easy
TTITLE1=Just Give Me A Part Of You
TTITLE2=Where Is She Today?
TTITLE3=This Is Where I'll Be ('Till You Return)
TTITLE4=Can't Get Away
TTITLE5=Girl You Must Believe (It's You I Love)
TTITLE6=(Just Once In Your Life) Be Fair With Me
TTITLE7=Love Of A Lifetime
TTITLE8=Can't Believe You'd Break A Promise
TTITLE9=Feel Like I'm Living With A Stranger
EXTD=
EXTT0=
EXTT1=
EXTT2=
EXTT3=
EXTT4=
EXTT5=
EXTT6=
EXTT7=
EXTT8=
EXTT9=
PLAYORDER=
